<svg width="145" height="18" viewBox="0 0 145 18" fill="none" xmlns="http://www.w3.org/2000/svg">
<path d="M130.013 17.4549V0.293945H133.323L141.217 12.135V0.293945H144.526V17.4549H141.217L133.323 5.63835V17.4549H130.013Z" fill="#1A1A18"/>
<path d="M119.684 17.7493C118.05 17.7493 116.628 17.3898 115.418 16.6706C114.209 15.9352 113.269 14.9137 112.599 13.6062C111.929 12.2823 111.594 10.746 111.594 8.99723C111.594 7.23211 111.937 5.67945 112.624 4.33927C113.31 2.98273 114.299 1.92039 115.59 1.15223C116.881 0.384078 118.426 0 120.223 0C122.234 0 123.901 0.482141 125.225 1.44642C126.565 2.4107 127.431 3.75089 127.823 5.46698H124.121C123.876 4.71517 123.419 4.1268 122.749 3.70186C122.095 3.26058 121.245 3.03994 120.199 3.03994C119.088 3.03994 118.14 3.28509 117.355 3.77541C116.571 4.26572 115.974 4.95216 115.566 5.83472C115.157 6.71728 114.953 7.77145 114.953 8.99723C114.953 10.2394 115.157 11.2935 115.566 12.1598C115.974 13.026 116.554 13.6879 117.306 14.1455C118.074 14.5868 118.973 14.8074 120.003 14.8074C121.506 14.8074 122.642 14.407 123.411 13.6062C124.195 12.789 124.661 11.7348 124.808 10.4437H120.591V7.96758H128.142V17.4551H125.078L124.832 15.2732C124.473 15.8126 124.048 16.2702 123.558 16.6461C123.084 17.0057 122.528 17.2753 121.891 17.4551C121.253 17.6513 120.518 17.7493 119.684 17.7493Z" fill="#1A1A18"/>
<path d="M106.704 17.4549V0.293945H110.014V17.4549H106.704Z" fill="#1A1A18"/>
<path d="M99.0425 17.7493C97.8004 17.7493 96.689 17.5368 95.7084 17.1119C94.7441 16.687 93.976 16.0659 93.4039 15.2487C92.8483 14.4315 92.5622 13.4427 92.5459 12.2823H96.0516C96.068 12.789 96.1987 13.2466 96.4439 13.6552C96.689 14.0638 97.0241 14.3907 97.449 14.6358C97.8903 14.8646 98.4133 14.979 99.018 14.979C99.541 14.979 99.9905 14.8973 100.366 14.7339C100.759 14.5541 101.061 14.309 101.273 13.9984C101.486 13.6879 101.592 13.3202 101.592 12.8952C101.592 12.4049 101.47 11.9963 101.224 11.6694C100.996 11.3426 100.669 11.0647 100.244 10.8359C99.8352 10.6071 99.3531 10.4028 98.7974 10.223C98.258 10.0269 97.686 9.82259 97.0813 9.61013C95.7248 9.16884 94.6869 8.58047 93.9678 7.845C93.265 7.10953 92.9136 6.13708 92.9136 4.92764C92.9136 3.89799 93.1588 3.01542 93.6491 2.27995C94.1558 1.54448 94.8504 0.980625 95.7329 0.588375C96.6155 0.196125 97.6206 0 98.7484 0C99.9088 0 100.922 0.204297 101.788 0.61289C102.671 1.00514 103.365 1.57717 103.872 2.32898C104.395 3.0808 104.665 3.96336 104.681 4.97667H101.151C101.135 4.60077 101.02 4.24938 100.808 3.9225C100.612 3.57928 100.334 3.30961 99.9741 3.11348C99.6146 2.90102 99.1896 2.79478 98.6993 2.79478C98.2744 2.77844 97.8821 2.84381 97.5226 2.99091C97.1793 3.138 96.9015 3.35864 96.689 3.65283C96.4929 3.93067 96.3949 4.28206 96.3949 4.707C96.3949 5.11559 96.4929 5.45881 96.689 5.73666C96.9015 6.0145 97.1875 6.25966 97.5471 6.47213C97.9067 6.66825 98.3316 6.8562 98.8219 7.03598C99.3122 7.19942 99.8434 7.37103 100.415 7.55081C101.265 7.845 102.05 8.19639 102.769 8.60498C103.488 8.99723 104.06 9.51206 104.485 10.1495C104.91 10.7869 105.122 11.6286 105.122 12.6746C105.122 13.5735 104.885 14.407 104.411 15.1752C103.937 15.9433 103.251 16.5644 102.352 17.0384C101.47 17.5123 100.366 17.7493 99.0425 17.7493Z" fill="#1A1A18"/>
<path d="M80.0673 17.4549V0.293945H91.3444V2.96615H83.3769V7.45251H90.609V10.0267H83.3769V14.7827H91.3444V17.4549H80.0673Z" fill="#1A1A18"/>
<path d="M63.9597 17.4549V0.293945H69.6964C71.6903 0.293945 73.3329 0.653508 74.624 1.37263C75.9315 2.07541 76.8958 3.07238 77.5169 4.36354C78.1543 5.63835 78.473 7.14198 78.473 8.87442C78.473 10.6069 78.1543 12.1187 77.5169 13.4098C76.8958 14.6846 75.9397 15.6816 74.6485 16.4007C73.3574 17.1035 71.7067 17.4549 69.6964 17.4549H63.9597ZM67.2693 14.6111H69.5248C70.9303 14.6111 72.0335 14.3823 72.8344 13.9246C73.6516 13.467 74.2318 12.8133 74.575 11.9634C74.9182 11.0972 75.0898 10.0675 75.0898 8.87442C75.0898 7.66498 74.9182 6.63532 74.575 5.78545C74.2318 4.91923 73.6516 4.25731 72.8344 3.79968C72.0335 3.34206 70.9303 3.11324 69.5248 3.11324H67.2693V14.6111Z" fill="#1A1A18"/>
<path d="M50.0096 17.4549V2.96615H44.9839V0.293945H58.2959V2.96615H53.2947V17.4549H50.0096Z" fill="#1A1A18"/>
<path d="M36.418 17.4549V0.293945H39.7276V14.8807H47.2539V17.4549H36.418Z" fill="#1A1A18"/>
<path d="M26.3376 17.7493C24.6706 17.7493 23.1996 17.3734 21.9248 16.6216C20.65 15.8698 19.653 14.832 18.9339 13.5081C18.2148 12.1679 17.8552 10.6234 17.8552 8.87466C17.8552 7.12588 18.2148 5.58956 18.9339 4.26572C19.653 2.92553 20.65 1.87953 21.9248 1.12772C23.1996 0.375906 24.6706 0 26.3376 0C28.021 0 29.5001 0.375906 30.775 1.12772C32.0498 1.87953 33.0386 2.92553 33.7414 4.26572C34.4605 5.58956 34.82 7.12588 34.82 8.87466C34.82 10.6234 34.4605 12.1679 33.7414 13.5081C33.0386 14.832 32.0498 15.8698 30.775 16.6216C29.5001 17.3734 28.021 17.7493 26.3376 17.7493ZM26.3376 14.7829C27.3836 14.7829 28.2825 14.5459 29.0343 14.072C29.8025 13.5817 30.3991 12.8952 30.824 12.0127C31.2489 11.1301 31.4614 10.0841 31.4614 8.87466C31.4614 7.64888 31.2489 6.60288 30.824 5.73666C30.3991 4.85409 29.8025 4.17583 29.0343 3.70186C28.2825 3.22789 27.3836 2.99091 26.3376 2.99091C25.308 2.99091 24.4091 3.22789 23.6409 3.70186C22.8728 4.17583 22.2762 4.85409 21.8513 5.73666C21.4263 6.60288 21.2139 7.64888 21.2139 8.87466C21.2139 10.0841 21.4263 11.1301 21.8513 12.0127C22.2762 12.8952 22.8728 13.5817 23.6409 14.072C24.4091 14.5459 25.308 14.7829 26.3376 14.7829Z" fill="#1A1A18"/>
<path d="M8.09016 17.7493C6.45578 17.7493 5.03388 17.3898 3.82444 16.6706C2.615 15.9352 1.67523 14.9137 1.00514 13.6062C0.335047 12.2823 0 10.746 0 8.99723C0 7.23211 0.343219 5.67945 1.02966 4.33927C1.71609 2.98273 2.70489 1.92039 3.99605 1.15223C5.2872 0.384078 6.83169 0 8.6295 0C10.6398 0 12.3068 0.482141 13.6307 1.44642C14.9709 2.4107 15.8371 3.75089 16.2293 5.46698H12.5275C12.2823 4.71517 11.8247 4.1268 11.1546 3.70186C10.5009 3.26058 9.65099 3.03994 8.60499 3.03994C7.49361 3.03994 6.54567 3.28509 5.76117 3.77541C4.97667 4.26572 4.38013 4.95216 3.97153 5.83472C3.56294 6.71728 3.35864 7.77145 3.35864 8.99723C3.35864 10.2394 3.56294 11.2935 3.97153 12.1598C4.38013 13.026 4.96033 13.6879 5.71214 14.1455C6.4803 14.5868 7.3792 14.8074 8.40886 14.8074C9.91249 14.8074 11.0484 14.407 11.8165 13.6062C12.601 12.789 13.0668 11.7348 13.2139 10.4437H8.99724V7.96758H16.548V17.4551H13.4836L13.2384 15.2732C12.8789 15.8126 12.4539 16.2702 11.9636 16.6461C11.4897 17.0057 10.934 17.2753 10.2966 17.4551C9.65916 17.6513 8.92369 17.7493 8.09016 17.7493Z" fill="#1A1A18"/>
</svg>
